# xmcd
#
# Track frame offsets: 
#        150
#        38389
#        54096
#        79978
#        103325
#        131792
#
# Disc length: 2071 seconds
#
# Revision: 2
# Processed by: cddbd v1.5.2PL0 Copyright (c) Steve Scherf et al.
# Submitted via: ExactAudioCopy v0.95b4
#
DISCID=46081506
DTITLE=Various Artist - DREAM EP
DYEAR=2011
DGENRE=tech dance
TTITLE0=NIGHT LIBERATOR - AS IF IN A DREAM(Original Mix)
TTITLE1=NIGHT LIBERATOR - AS IF IN A DREAM(Radio Mix)
TTITLE2=REMO-CON with NIGHT LIBERATOR - 6TH MODE(Remo-con Mix)
TTITLE3=REMO-CON with NIGHT LIBERATOR - 6TH MODE(Night Liberator Mix)
TTITLE4=SHIBEE - BEELINE(Night Liberator Remix)
TTITLE5=NIGHT LIBERATOR - AS IF IN A DREAM(Biomehanika Rework)
EXTD=
EXTT0=
EXTT1=
EXTT2=
EXTT3=
EXTT4=
EXTT5=
PLAYORDER=
